<svg width="1200" height="800" viewBox="0 0 1200 800" fill="none" xmlns="http://www.w3.org/2000/svg">
  <!-- Background with subtle grid -->
  <rect width="1200" height="800" rx="12" fill="#F8F9FC" />
  <pattern id="grid" width="40" height="40" patternUnits="userSpaceOnUse">
    <path d="M 40 0 L 0 0 0 40" fill="none" stroke="#E2E8F0" stroke-width="0.5" />
  </pattern>
  <rect width="1200" height="800" fill="url(#grid)" opacity="0.5" />

  <!-- Dashboard Frame -->
  <rect x="100" y="100" width="1000" height="600" rx="8" fill="white" stroke="#E2E8F0" stroke-width="2" />

  <!-- Header -->
  <rect x="100" y="100" width="1000" height="60" rx="8 8 0 0" fill="#6C63FF" opacity="0.1" />
  
  <!-- Logo in header -->
  <circle cx="140" cy="130" r="20" fill="url(#logoGradient)" />
  <path d="M140 118L146 112L152 118L146 124" fill="#FF6584" stroke="white" stroke-width="1.5" stroke-linecap="round" stroke-linejoin="round" />
  <path d="M146 122L134 134L128 128" stroke="white" stroke-width="2" stroke-linecap="round" stroke-linejoin="round" />
  
  <!-- Navigation sidebar -->
  <rect x="100" y="160" width="200" height="540" fill="#FAFAFA" />
  
  <!-- Nav items -->
  <rect x="120" y="200" width="160" height="40" rx="4" fill="#6C63FF" />
  <rect x="120" y="260" width="160" height="40" rx="4" fill="#F3F4F6" />
  <rect x="120" y="320" width="160" height="40" rx="4" fill="#F3F4F6" />
  <rect x="120" y="380" width="160" height="40" rx="4" fill="#F3F4F6" />
  
  <!-- Main content area -->
  <rect x="320" y="180" width="460" height="240" rx="8" fill="white" stroke="#E2E8F0" stroke-width="2" />
  <rect x="340" y="200" width="420" height="30" rx="4" fill="#F3F4F6" />
  
  <!-- Task cards -->
  <rect x="340" y="250" width="120" height="150" rx="6" fill="white" stroke="#6C63FF" stroke-width="2" />
  <rect x="350" y="260" width="100" height="10" rx="2" fill="#6C63FF" opacity="0.2" />
  <rect x="350" y="280" width="100" height="40" rx="2" fill="#F3F4F6" />
  <rect x="350" y="330" width="100" height="10" rx="2" fill="#F3F4F6" />
  <rect x="350" y="350" width="60" height="10" rx="2" fill="#F3F4F6" />
  <circle cx="440" cy="385" r="10" fill="#4FD1C5" />
  
  <rect x="480" y="250" width="120" height="150" rx="6" fill="white" stroke="#E2E8F0" stroke-width="2" />
  <rect x="490" y="260" width="100" height="10" rx="2" fill="#6C63FF" opacity="0.2" />
  <rect x="490" y="280" width="100" height="40" rx="2" fill="#F3F4F6" />
  <rect x="490" y="330" width="100" height="10" rx="2" fill="#F3F4F6" />
  <rect x="490" y="350" width="60" height="10" rx="2" fill="#F3F4F6" />
  <circle cx="580" cy="385" r="10" fill="#FF6584" />
  
  <rect x="620" y="250" width="120" height="150" rx="6" fill="white" stroke="#E2E8F0" stroke-width="2" />
  <rect x="630" y="260" width="100" height="10" rx="2" fill="#6C63FF" opacity="0.2" />
  <rect x="630" y="280" width="100" height="40" rx="2" fill="#F3F4F6" />
  <rect x="630" y="330" width="100" height="10" rx="2" fill="#F3F4F6" />
  <rect x="630" y="350" width="60" height="10" rx="2" fill="#F3F4F6" />
  <circle cx="720" cy="385" r="10" fill="#6C63FF" />
  
  <!-- Notes panel -->
  <rect x="320" y="440" width="460" height="240" rx="8" fill="white" stroke="#E2E8F0" stroke-width="2" />
  <rect x="340" y="460" width="200" height="20" rx="4" fill="#6C63FF" opacity="0.2" />
  <rect x="340" y="490" width="420" height="10" rx="2" fill="#F3F4F6" />
  <rect x="340" y="510" width="420" height="10" rx="2" fill="#F3F4F6" />
  <rect x="340" y="530" width="420" height="10" rx="2" fill="#F3F4F6" />
  <rect x="340" y="550" width="300" height="10" rx="2" fill="#F3F4F6" />
  <rect x="340" y="580" width="420" height="80" rx="4" fill="#F3F4F6" />
  
  <!-- Pomodoro timer -->
  <rect x="800" y="180" width="280" height="240" rx="8" fill="white" stroke="#E2E8F0" stroke-width="2" />
  <circle cx="940" cy="280" r="80" fill="#F3F4F6" />
  <circle cx="940" cy="280" r="70" fill="white" stroke="#E2E8F0" stroke-width="2" />
  <path d="M940 230 L940 280 L990 280" stroke="#6C63FF" stroke-width="4" stroke-linecap="round" />
  <rect x="860" y="380" width="160" height="20" rx="10" fill="#4FD1C5" />
  
  <!-- Rocket animation -->
  <g transform="translate(900, 500) rotate(-30)">
    <!-- Rocket body -->
    <path d="M0,0 L30,50 L-30,50 Z" fill="#6C63FF" />
    <rect x="-20" y="50" width="40" height="30" rx="5" fill="#6C63FF" />
    
    <!-- Rocket window -->
    <circle cx="0" cy="30" r="10" fill="white" stroke="#4FD1C5" stroke-width="2" />
    
    <!-- Flames -->
    <path d="M-15,80 L0,110 L15,80 Z" fill="#FF6584" opacity="0.8">
      <animate attributeName="opacity" values="0.8;0.4;0.8" dur="1s" repeatCount="indefinite" />
    </path>
    <path d="M-10,80 L0,100 L10,80 Z" fill="#FFC542" opacity="0.8">
      <animate attributeName="opacity" values="0.8;0.5;0.8" dur="0.7s" repeatCount="indefinite" />
    </path>
  </g>
  
  <!-- Gradient definitions -->
  <defs>
    <linearGradient id="logoGradient" x1="0%" y1="0%" x2="100%" y2="0%">
      <stop offset="0%" stop-color="#6C63FF" />
      <stop offset="100%" stop-color="#4FD1C5" />
    </linearGradient>
  </defs>
</svg>